<svg width="73" height="12" viewBox="0 0 73 12" fill="none" xmlns="http://www.w3.org/2000/svg">
<path d="M2.36035 1.04688V11H0.30957V1.04688H2.36035ZM6.3252 5.29883V6.89844H1.7998V5.29883H6.3252ZM6.80371 1.04688V2.65332H1.7998V1.04688H6.80371ZM10.7822 2.74902L8.0752 11H5.89453L9.59277 1.04688H10.9805L10.7822 2.74902ZM13.0312 11L10.3174 2.74902L10.0986 1.04688H11.5L15.2188 11H13.0312ZM12.9082 7.29492V8.90137H7.65137V7.29492H12.9082ZM19.1699 8.92188L21.5146 1.04688H23.7979L20.332 11H18.8281L19.1699 8.92188ZM17.0098 1.04688L19.3477 8.92188L19.7031 11H18.1855L14.7402 1.04688H17.0098ZM32.8076 5.79102V6.2627C32.8076 7.01921 32.7051 7.69824 32.5 8.2998C32.2949 8.90137 32.0055 9.41406 31.6318 9.83789C31.2581 10.2572 30.8115 10.5785 30.292 10.8018C29.777 11.0251 29.2051 11.1367 28.5762 11.1367C27.9518 11.1367 27.3799 11.0251 26.8604 10.8018C26.3454 10.5785 25.8988 10.2572 25.5205 9.83789C25.1423 9.41406 24.8483 8.90137 24.6387 8.2998C24.4336 7.69824 24.3311 7.01921 24.3311 6.2627V5.79102C24.3311 5.02995 24.4336 4.35091 24.6387 3.75391C24.8438 3.15234 25.1331 2.63965 25.5068 2.21582C25.8851 1.79199 26.3317 1.46842 26.8467 1.24512C27.3662 1.02181 27.9382 0.910156 28.5625 0.910156C29.1914 0.910156 29.7633 1.02181 30.2783 1.24512C30.7979 1.46842 31.2445 1.79199 31.6182 2.21582C31.9964 2.63965 32.2881 3.15234 32.4932 3.75391C32.7028 4.35091 32.8076 5.02995 32.8076 5.79102ZM30.7363 6.2627V5.77734C30.7363 5.2487 30.6885 4.78385 30.5928 4.38281C30.4971 3.98177 30.3558 3.64453 30.1689 3.37109C29.9821 3.09766 29.7542 2.89258 29.4854 2.75586C29.2165 2.61458 28.9089 2.54395 28.5625 2.54395C28.2161 2.54395 27.9085 2.61458 27.6396 2.75586C27.3753 2.89258 27.1497 3.09766 26.9629 3.37109C26.7806 3.64453 26.6416 3.98177 26.5459 4.38281C26.4502 4.78385 26.4023 5.2487 26.4023 5.77734V6.2627C26.4023 6.78678 26.4502 7.25163 26.5459 7.65723C26.6416 8.05827 26.7829 8.39779 26.9697 8.67578C27.1566 8.94922 27.3844 9.15658 27.6533 9.29785C27.9222 9.43913 28.2298 9.50977 28.5762 9.50977C28.9225 9.50977 29.2301 9.43913 29.499 9.29785C29.7679 9.15658 29.9935 8.94922 30.1758 8.67578C30.3581 8.39779 30.4971 8.05827 30.5928 7.65723C30.6885 7.25163 30.7363 6.78678 30.7363 6.2627ZM34.2842 1.04688H37.9961C38.7572 1.04688 39.4111 1.16081 39.958 1.38867C40.5094 1.61654 40.9333 1.95378 41.2295 2.40039C41.5257 2.84701 41.6738 3.39616 41.6738 4.04785C41.6738 4.58105 41.5827 5.03906 41.4004 5.42188C41.2227 5.80013 40.9697 6.11686 40.6416 6.37207C40.318 6.62272 39.9375 6.82324 39.5 6.97363L38.8506 7.31543H35.624L35.6104 5.71582H38.0098C38.3698 5.71582 38.6683 5.65202 38.9053 5.52441C39.1423 5.39681 39.32 5.21908 39.4385 4.99121C39.5615 4.76335 39.623 4.49902 39.623 4.19824C39.623 3.87923 39.5638 3.60352 39.4453 3.37109C39.3268 3.13867 39.1468 2.96094 38.9053 2.83789C38.6637 2.71484 38.3607 2.65332 37.9961 2.65332H36.335V11H34.2842V1.04688ZM39.8486 11L37.5791 6.56348L39.7461 6.5498L42.043 10.9043V11H39.8486ZM45.4336 1.04688V11H43.3896V1.04688H45.4336ZM51.5996 1.04688V11H49.5557V1.04688H51.5996ZM54.6621 1.04688V2.65332H46.541V1.04688H54.6621ZM59.1396 2.74902L56.4326 11H54.252L57.9502 1.04688H59.3379L59.1396 2.74902ZM61.3887 11L58.6748 2.74902L58.4561 1.04688H59.8574L63.5762 11H61.3887ZM61.2656 7.29492V8.90137H56.0088V7.29492H61.2656ZM64.499 1.04688H68.2109C68.972 1.04688 69.626 1.16081 70.1729 1.38867C70.7243 1.61654 71.1481 1.95378 71.4443 2.40039C71.7406 2.84701 71.8887 3.39616 71.8887 4.04785C71.8887 4.58105 71.7975 5.03906 71.6152 5.42188C71.4375 5.80013 71.1846 6.11686 70.8564 6.37207C70.5329 6.62272 70.1523 6.82324 69.7148 6.97363L69.0654 7.31543H65.8389L65.8252 5.71582H68.2246C68.5846 5.71582 68.8831 5.65202 69.1201 5.52441C69.3571 5.39681 69.5348 5.21908 69.6533 4.99121C69.7764 4.76335 69.8379 4.49902 69.8379 4.19824C69.8379 3.87923 69.7786 3.60352 69.6602 3.37109C69.5417 3.13867 69.3617 2.96094 69.1201 2.83789C68.8786 2.71484 68.5755 2.65332 68.2109 2.65332H66.5498V11H64.499V1.04688ZM70.0635 11L67.7939 6.56348L69.9609 6.5498L72.2578 10.9043V11H70.0635Z" fill="white"/>
</svg>
